<?xml version="1.0" encoding="utf-8"?>
<!-- Generator: Adobe Illustrator 28.2.0, SVG Export Plug-In . SVG Version: 6.00 Build 0)  -->
<svg version="1.1" id="Capa_1" xmlns="http://www.w3.org/2000/svg" xmlns:xlink="http://www.w3.org/1999/xlink" x="0px" y="0px"
	 viewBox="0 0 406.6 100" style="enable-background:new 0 0 406.6 100;" xml:space="preserve">
<style type="text/css">
	.st0{fill:none;stroke:#FFFFFF;stroke-miterlimit:10;}
</style>
<g>
	<g>
		<g>
			<path class="st0" d="M338.5,99.5c0-23.6,0-47,0-70.7c-4.2,5.2-8.1,10.2-12.1,15.1c-2.1,2.6-4.2,5.1-6.2,7.7
				c-3.7,4.7-7.3,9.5-11.1,14.1c-2.7,3.3-5.5,6.5-8.2,9.9c-3.6,4.5-7,9.1-10.6,13.6c-2.6,3.2-5.2,6.4-7.9,9.5
				c-0.3,0.4-0.9,0.7-1.3,0.7c-9,0-18,0-27.3,0c0-23.4,0-46.6,0-70.1c-3.3,3.9-6.5,7.5-9.5,11.2c-5.3,6.6-10.6,13.3-15.9,20
				c-4.9,6.3-9.8,12.6-14.8,18.9c-1.9,2.4-3.9,4.6-5.8,6.9c-3.3,4-6.6,8.1-10,12.1c-0.3,0.4-0.9,0.9-1.3,0.9c-9,0.1-17.9,0-27.1,0
				c0-23.4,0-46.6,0-69.8c-0.2-0.1-0.3-0.2-0.5-0.2c-3.5,4.5-7,9.1-10.5,13.6c-2,2.5-4.1,4.8-6.1,7.3c-4.3,5.4-8.4,10.9-12.7,16.3
				c-2,2.5-4.1,4.8-6.1,7.3c-4.4,5.5-8.7,11.1-13.1,16.6c-2.3,2.8-4.6,5.5-7,8.2c-0.4,0.5-1.3,0.8-1.9,0.8c-8.5,0-17,0-25.5,0
				c-0.2,0-0.4-0.1-0.8-0.2c0-23.4,0-46.8,0-70.6c-4.1,5.1-7.9,10-11.7,14.8c-2.1,2.6-4.2,5.1-6.2,7.7C63.2,56.5,59,61.8,54.8,67
				c-2.1,2.6-4.3,5.2-6.4,7.9c-4.2,5.3-8.3,10.6-12.5,15.8c-2.2,2.8-4.5,5.5-6.8,8.1c-0.3,0.4-1,0.7-1.5,0.7c-8.8,0-17.6,0-26.9,0
				c0.4-0.8,0.5-1.4,0.9-1.9C6.8,91.4,12,85.2,17.1,78.9c3.5-4.2,6.8-8.5,10.2-12.8c4.9-6.3,9.8-12.7,14.8-18.9
				c5.9-7.4,11.9-14.8,17.9-22.2c4.7-5.8,9.4-11.5,14-17.2c1.6-2,3-4.1,4.6-6.1c0.4-0.5,1.1-1,1.6-1c9-0.1,18,0,27.3,0
				c0,23.4,0,46.6,0,70.4c4.1-5.1,7.8-9.8,11.5-14.5c3.7-4.6,7.4-9.2,11.1-13.8c3.2-3.9,6.4-7.7,9.5-11.7
				c4.8-6.1,9.5-12.3,14.3-18.4C157,9,160,5.3,163,1.7c0.4-0.5,1.2-1,1.8-1c9-0.1,17.9,0,27.1,0c0,23.4,0,46.7,0,70.3
				c4.8-5.9,9.4-11.4,13.9-17c6.3-7.8,12.5-15.7,18.8-23.5c6.3-7.8,12.5-15.7,18.8-23.5c1.2-1.5,2.5-2.8,3.4-4.5
				c0.8-1.6,1.9-1.8,3.4-1.8c7.8,0,15.7,0,23.5,0c0.7,0,1.5,0,2.4,0c0,23.4,0,46.6,0,70.5c1.6-1.8,2.9-3.2,4.1-4.7
				c3.2-4,6.3-8.1,9.6-12.1c3.2-4,6.5-7.9,9.7-11.9c5.4-6.7,10.7-13.4,16-20.2c4.8-6.1,9.5-12.3,14.3-18.4c1.6-2,3.3-3.5,6.4-3.4
				c8,0.4,16,0.1,24.1,0.1c0,23.4,0,46.6,0,69.8c0.2,0.1,0.3,0.2,0.5,0.3c1.5-1.7,3-3.3,4.4-5.1c2.3-2.9,4.5-5.8,6.7-8.7
				c1.6-2,3.1-4.1,4.7-6c0.5-0.6,1.4-1.3,2.1-1.3c8.8-0.1,17.6,0,26.4,0c0.1,0,0.2,0.1,0.6,0.3c-2.1,2.8-4.2,5.5-6.4,8.2
				c-4.2,5.3-8.4,10.5-12.7,15.8c-3.7,4.7-7.5,9.3-11.3,14c-2.7,3.3-5.3,6.7-8,10c-0.6,0.7-1.7,1.5-2.5,1.5
				C356.3,99.6,347.6,99.5,338.5,99.5z"/>
		</g>
	</g>
</g>
</svg>
