<?xml version="1.0" encoding="utf-8"?>
<!-- Generator: Adobe Illustrator 28.2.0, SVG Export Plug-In . SVG Version: 6.00 Build 0)  -->
<svg version="1.1" id="Capa_1" xmlns="http://www.w3.org/2000/svg" xmlns:xlink="http://www.w3.org/1999/xlink" x="0px" y="0px"
	 viewBox="0 0 520 354.4" style="enable-background:new 0 0 520 354.4;" xml:space="preserve">
<style type="text/css">
	.st0{fill:#FFFFFF;}
</style>
<g>
	<g>
		<path class="st0" d="M88.6,258.1c-1.8-0.5-2.3-1.8-2.5-3.1c-0.5-3.1-0.9-6.3-1.3-9.5c-0.2-1.4-0.2-2.8-0.6-4.1
			c-0.2-0.7-1-1.5-1.7-1.8c-0.9-0.3-1.7,0.4-2,1.4c-0.3,0.9-0.7,1.9-1.1,2.8c-2,4.8-4.3,9.5-7.6,13.6c-2.1,2.7-4.7,4.7-8,6.1
			c-2.8,1.2-5.4,3.1-7.7,5.1c-6.9,6.1-12.4,13.6-17.6,21.2c-0.4,0.6-0.7,1.4-1,2.2c-0.6,1.7-1.3,3.3-3.4,3.8
			c-0.9,0.2-1.7,1.1-2.3,1.8c-2.2,2.8-4.7,5.5-6.5,8.6c-4.1,7-8,14.1-11.9,21.2c-1.9,3.4-1.7,7.2-1.1,10.9c0.5,3.3,1.5,6.6,2.2,9.9
			c0.2,0.8,0.3,1.6,0.3,2.4c0,1.2-0.5,2.1-1.6,2.6c-3.9,1.8-7.8,1.6-11.7,0.1c-0.7-0.2-1.4-1.3-1.4-2c-0.2-2.4-0.1-4.8-0.1-7.2
			c0-1.1,0.7-1.8,1.8-2.2c2.4-1,3.1-2.1,2.9-4.5c-0.2-1.7-0.7-3.3-1.1-5c-0.7-2.7-0.5-3.7,1.8-5.4c3.3-2.4,4.3-5.9,4.2-9.8
			c-0.1-7.4,1-14.5,3.2-21.6c0.9-2.9,1.8-5.7,2.6-8.6c0.3-1.1,0.2-2.4,0.4-3.6c-0.6-0.3-1.1-0.3-1.4-0.7c-0.5-0.6-1.2-1.5-1.1-2.2
			c0.1-0.7,1-1.7,1.6-1.8c3-0.3,4.8-2.4,6.6-4.3c5.2-5.3,9.5-11.4,13.5-17.6c6.1-9.3,11.3-19.1,16.1-29.2c0.6-1.2,1-2.4,1.4-3.6
			c0.9-2.9,0.6-5.4-2-7.5c-2.2-1.8-2.2-3.8-0.6-6.1c0.2-0.2,0.3-0.5,0.6-0.7c4.2-3,4.4-7.4,3.8-11.9c-0.4-2.7-0.9-5.3-1.8-7.9
			c-2.1-6-3.8-12-3.7-18.4c0-0.3-0.1-0.6-0.2-0.9c-2-0.3-4-0.4-5.9-0.8c-4.9-1.1-7.6-3.5-6.6-10.2c0.4-2.3,1.2-4.7,2.4-6.7
			c3.9-6.1,5.9-12.9,7.3-19.9c1-5.1,1.5-10.3,2.4-15.4c1.1-6.2,3.3-11.9,7.3-16.9c1.2-1.6,2.6-3.1,4.2-4.2c3.1-2.1,4.7-5,5-8.5
			c0.3-3.5,0.5-7,0.2-10.5c-0.2-3-1.3-5.8-3.8-7.9c-2.2-1.9-3-4.5-2.9-7.3c0.1-2.1-0.7-3.5-1.9-5.2c-4.6-6.3-6.4-13.3-4.7-21
			c0.8-3.6,2.7-6.7,5.6-9C65.3,21.1,70.2,12.9,74,3.8c0.5-1.2,1-2.4,1.6-3.8c1.1,1,1.2,2.1,1.3,3.3c0.4,3.5,0,6.8-1.5,10
			c-1.3,2.9-2.9,5.7-4.6,8.4c-4.2,6.7-7.7,13.6-8.5,21.6c-0.2,2.3-0.4,4.8,1.7,6.3c2.3,1.7,4.7,0.4,6.7-0.8c2.3-1.4,4.8-2,7.4-2.1
			c2.9,0,5.8,0,8.7,0.2c4.6,0.3,8.2-0.9,11.5-4.5c5.2-5.7,12.1-5.3,16.5-2c3.9,2.8,8.5,3.6,13.1,3.8c5.4,0.1,10.8,0,16.2-0.6
			c2.6-0.3,5.1-1.9,7.9-3.1c0.3,0.7-0.1,1.7-0.4,2.7c-1,2.8-3,4.7-5.6,6.1c-3.2,1.7-6.8,2.7-10.4,2.7c-5.3,0.1-10.6-0.1-15.9-0.7
			c-3.5-0.4-6.3,0.4-8.9,2.5c-0.5,0.4-1.1,0.9-1.5,1.5c-3.7,4.7-8.4,6.3-14.3,4.6c-0.1,0.7-0.3,1.4-0.3,2c-0.1,5.1,0,10.2-0.2,15.3
			c-0.2,8.4,4.6,15.1,12.1,18c3.1,1.2,4.5,3.2,4.9,6.1c0.5,3.4,1.2,6.7,1.1,10.1c-0.1,8.6,1.1,17,2.6,25.3c1,5.5,2.1,11,3.2,16.5
			c1,4.8-0.4,8.7-4,11.9c-3.8,3.4-8.3,5.3-13.1,6.4c-2.3,0.5-3.5,1.8-3.5,3.8c0,3.9,0.3,7.8,0.5,11.6c0,0.5,0.7,1.2,1.2,1.5
			c7,3.6,11.4,9.6,15,16.4c3.6,7,6,14.4,7.7,22c1.7,7.6,2.9,15.3,3.2,23.2c0.2,5.5,1.5,10.6,4.9,15.2c2,2.7,3.7,5.7,5.3,8.7
			c0.6,1,1,2.3,0.9,3.4c-0.3,6.6,2.2,12.1,6,17.2c0.8,1.1,1.9,2.1,2.8,3.1c3,3.3,4.7,7.1,4.6,11.7c-0.1,3.8,0.7,7.4,2.2,10.8
			c0.9,2,2.4,3.9,3.8,5.7c1.7,2.1,3,4.2,3,7c-0.1,3.1,1.1,5.6,2.8,8.1c1,1.5,2,3,2.7,4.6c0.8,2.1,0.3,3.4-1.4,4.7
			c-1,0.7-2,1.4-3.1,1.9c-2.2,1.1-3.3,0.8-4.9-1.1c-1.5-1.8-2.5-1.9-4.6-0.6c-0.7,0.5-1.6,1-2.4,1c-0.9-0.1-2-0.6-2.5-1.3
			c-0.4-0.5-0.2-1.9,0.3-2.4c1.1-1.4,2.4-2.7,3.9-3.7c1.1-0.8,1.6-1.7,1.6-3c-0.3-5.9-1.3-11.5-5-16.4c-1-1.3-2.1-2.5-3.3-3.5
			c-6.7-5.7-12.4-12.2-16.2-20.3c-0.7-1.5-1.6-3-2.5-4.4c-1.1-2-2.7-3.4-5-4c-1.6-0.4-3.1-1.4-4.5-2.3c-2.4-1.5-3.6-3.7-3.9-6.7
			c-0.4-3.7-1.1-7.6-2.4-11.1c-2.9-8.1-6.2-16-9.4-24c-0.8-2-2-3.9-3.1-5.8c-0.5-0.9-1.1-1.8-1.8-2.3c-0.8-0.6-2-1.1-2.9-0.9
			c-1.3,0.3-1,1.7-1,2.8c0,4.1-0.1,8.2-0.3,12.3C90.1,255.7,89.8,257,88.6,258.1z"/>
		<path class="st0" d="M276.8,294.4c-2.1-13-4.1-25.7-6.2-38.8c1.5-0.2,2.7-0.4,3.9-0.6c4.2-0.6,8.3-1.2,12.5-1.7
			c1.6-0.2,3.2-0.1,4.8,0.1c2.9,0.4,5.2,1.9,6.8,4.4c3.8,5.7,3.1,12.9-1.6,17.8c-0.1,0.1-0.2,0.3-0.4,0.7c2.7,4.4,5.5,9,8.5,13.9
			c-2.7,0.4-4.9,0.7-7.3,1.1c-2.6-4.3-5.2-8.5-7.8-12.8c-2.8,0.4-5.6,0.9-8.7,1.3c0.7,4.6,1.4,8.9,2.1,13.6
			C281.2,293.7,279.1,294,276.8,294.4z M280.4,274c3.4-0.6,6.7-1,9.9-1.7c1.9-0.4,3.3-1.8,3.5-3.7c0.2-2,0-4.2-0.6-6.1
			c-0.6-2.1-2.3-3.3-4.5-3.3c-3.5-0.1-6.9,0.6-10.4,1.4C279,265.1,279.7,269.4,280.4,274z"/>
		<path class="st0" d="M347.5,240.6c6.5-1.7,12.4-3.5,18.4-4.7c5.2-1,9.2,1.4,11.5,6.1c0.8,1.6,1.4,3.4,1.7,5.1
			c0.7,3.8,0.1,7.4-3.2,10.4c3.5,4.3,7,8.5,10.7,13c-2.6,0.8-4.8,1.4-7.1,2.1c-3.2-3.9-6.2-7.7-9.5-11.6c-2.8,0.8-5.5,1.6-8.4,2.4
			c1.3,4.5,2.6,8.8,3.9,13.3c-2.2,0.6-4.1,1.2-6.4,1.9C355.3,265.8,351.5,253.5,347.5,240.6z M359.8,257.6c0.8-0.2,1.3-0.3,1.7-0.4
			c2.2-0.6,4.4-1.2,6.6-1.9c3.6-1.2,4.9-3.7,4-7.5c-1.1-4.5-3.3-6.4-7.2-5.7c-3,0.5-5.9,1.6-9.1,2.5
			C357.2,249,358.5,253.2,359.8,257.6z"/>
		<path class="st0" d="M400.1,266.1c-4.8-12.5-9.5-24.6-14.3-36.9c6.1-2.1,11.8-4.9,18-6.1c4.2-0.8,8.1,0.2,10.8,3.7
			c1.8,2.3,3.4,4.7,4.6,7.3c2,4.1,3.6,8.5,3.9,13.1c0.4,6.5-1.7,10.3-7.6,12.9C410.6,262.3,405.5,264,400.1,266.1z M394.2,232.4
			c3.4,8.8,6.6,17.1,10,25.7c2.7-1,5.2-1.8,7.5-2.9c3.4-1.5,4.8-4,4.3-7.7c-0.7-5.4-2.7-10.4-5.6-15c-1.8-3-4.5-3.9-7.7-3
			C399.9,230.2,397.3,231.3,394.2,232.4z"/>
		<path class="st0" d="M427.6,220.5c-0.2-4.2,1.6-7.4,4.8-9.9c3-2.3,6.3-3.8,10-4.5c4.6-0.9,8.5,0.6,11.6,4c4.6,5,7.5,11,9.2,17.6
			c0.4,1.4,0.5,2.9,0.6,4.4c0.3,3.8-1.1,6.9-4,9.2c-3.9,3.2-8.3,5.2-13.4,5.4c-3,0.1-5.6-0.8-7.7-2.8
			C432.1,237.6,428.7,229.6,427.6,220.5z M447.7,240.8c1.9-0.8,3.9-1.3,5.7-2.3c3.2-1.8,4.2-4.1,3.4-7.8c-1.1-5.3-3.5-10-6.5-14.3
			c-3.1-4.4-6.9-5.7-12.7-2c-2.4,1.5-3.6,3.8-3.1,6.7c1.1,6.5,3.9,12.3,8.3,17.3C444,239.8,445.6,240.5,447.7,240.8z"/>
		<path class="st0" d="M233.4,352c-0.8-13.2-1.5-26-2.2-39.1c1.3-0.1,2.4-0.2,3.4-0.2c1-0.1,2-0.1,3.2-0.2
			c0.4,5.6,0.7,10.9,1.1,16.6c5.5-0.2,10.7-0.5,16.4-0.7c-0.3-5.5-0.6-10.8-0.8-16.4c2.2,0,4.4,0,6.8,0c0.7,12.9,1.5,25.7,2.2,38.6
			c-0.7,0.2-1.1,0.3-1.5,0.3c-1.6,0-3.2,0-5.2,0c-0.4-5.4-0.7-10.8-1.1-16.5c-5.6,0.2-10.8,0.5-16.4,0.7c0.3,5.6,0.5,11,0.8,16.7
			C237.8,351.8,235.7,351.9,233.4,352z"/>
		<path class="st0" d="M316.1,248c4.1-0.9,8.1-1.7,12.3-2.7c6.1,12,12.2,23.9,18.5,36.2c-2.3,0.5-4.3,1-6.5,1.5
			c-1.4-2.5-2.7-4.9-4.2-7.6c-4.7,1-9.3,2-14.2,3.1c0,2.8,0,5.5,0,8.5c-2.2,0.5-4.2,1-6.2,1.4C315.2,285.8,315.4,253.2,316.1,248z
			 M333.6,269.8c-2.8-5.7-5.5-10.9-8.1-16.1c-0.5-0.9-0.9-1.8-2.2-1.4c-1.4,0.4-1.2,1.4-1.2,2.4c-0.1,5.1-0.1,10.2-0.2,15.3
			c0,0.7,0.1,1.4,0.2,2.3C325.9,271.5,329.5,270.7,333.6,269.8z"/>
		<path class="st0" d="M308.4,345.7c-2.5,0.3-4.4,0.6-6.6,0.8c-1.1-2.6-2.2-5.2-3.4-8c-4.8,0.6-9.6,1.2-14.4,1.8
			c-0.4,3-0.8,5.6-1.1,8.5c-2.1,0.3-4,0.5-6,0.8c-0.5-2.3,3-36.1,4.1-40.1c4-0.5,8.2-1,12.5-1.5C298.4,320.6,303.3,333,308.4,345.7z
			 M289.1,314.4c-1.8-0.2-2.6,0.2-2.7,1.7c-0.2,2.1-0.5,4.2-0.7,6.2c-0.4,3.8-0.8,7.7-1.2,11.9c4.1-0.5,7.8-0.9,11.8-1.4
			C293.8,326.4,291.4,320.4,289.1,314.4z"/>
		<path class="st0" d="M222.4,277.7c0,6.7,0,13.1,0,19.8c-2.4,1.2-5.3,1-8,1.2c-3.4,0.2-6.8,0.2-10.1-0.3c-5-0.6-7.9-3.9-9.5-8.5
			c-1.4-4.3-1.5-8.6-1.5-13.1c0-3.4,0.3-6.8,1.5-10c1.6-4.5,4.7-7.2,9.3-7.9c6-0.9,11.9-0.2,17.9,1.2c0,1.7,0,3.3,0,5.1
			c-1.1-0.1-2.1-0.1-3-0.1c-3.7-0.2-7.4-0.5-11.1-0.4c-4,0.1-6.1,1.9-7,5.8c-1.2,5.8-1,11.5,0.3,17.3c0.6,2.7,2.3,4.4,5,5
			c3.1,0.6,6.1,0.5,9.3,0c0-3.1,0-5.9,0-9c-1.5-0.1-3-0.3-4.6-0.4c0-1.9,0-3.6,0-5.6C214.8,277.7,218.3,277.7,222.4,277.7z"/>
		<path class="st0" d="M373.3,291.4c0.6,2,1,3.7,1.6,5.7c-5.8,1.6-11.5,3.1-17.6,4.7c0.9,3.4,1.8,6.6,2.7,10.2
			c4.8-1.2,9.4-2.4,14.3-3.6c0.5,1.8,1,3.5,1.6,5.5c-4.8,1.3-9.4,2.6-14.3,3.9c1,3.5,1.9,6.8,2.9,10.5c5.9-1.5,11.5-3,17.6-4.5
			c0.5,1.8,1.1,3.5,1.7,5.7c-8.1,2.1-16,4.2-24.2,6.4c-3.5-12.7-7-25.1-10.5-38C357.1,295.6,365,293.5,373.3,291.4z"/>
		<path class="st0" d="M234.7,258.6c8.3-0.6,16.4-1.2,24.7-1.8c0.2,2,0.3,3.7,0.5,5.8c-6.1,0.5-12,1-18.2,1.4
			c0.3,3.6,0.6,6.9,0.9,10.4c5.1-0.3,9.8-0.6,14.9-0.9c0.1,2,0.3,3.6,0.4,5.6c-4.9,0.4-9.6,0.8-14.7,1.3c0.3,3.6,0.6,7,0.9,10.8
			c6.2-0.4,12.1-0.8,18.3-1.3c0.1,2,0.2,3.8,0.4,5.9c-8.2,0.6-16.3,1.2-24.3,1.8C237.5,295.7,234.5,264.5,234.7,258.6z"/>
		<path class="st0" d="M499.3,163.1c-1.2,0.8-2.3,1.5-3.7,2.4c-7.2-11.1-14.2-22.1-21.5-33.5c2.3-1.5,4.6-2.9,7-4.4
			c10.7,7.4,21.4,14.7,32.2,22.2c0.5-1.7-0.5-2.4-1-3.2c-5.3-8.3-10.6-16.5-15.8-24.8c-0.5-0.8-1-1.7-1.6-2.7
			c1.2-0.8,2.3-1.5,3.7-2.4c7.1,11.1,14.2,22.1,21.4,33.4c-2.3,1.5-4.5,2.9-6.8,4.4c-10.7-7.3-21.4-14.6-32.3-22
			c-0.6,1.3,0.2,1.9,0.6,2.6c5.3,8.4,10.7,16.7,16,25C498.1,161,498.6,162,499.3,163.1z"/>
		<path class="st0" d="M331.6,335.2c0.3-11.2,0.6-22.4,1-33.9c2.2-0.4,4.3-0.8,6.9-1.3c-0.6,13.6-1.1,26.8-1.7,40.3
			c-4.1,0.8-8.1,1.6-12.5,2.5c-5.7-12.1-11.5-24.2-17.3-36.7c1.3-0.3,2.3-0.7,3.4-0.9c1.1-0.2,2.2-0.3,3.4-0.5
			c0.5,0.9,0.9,1.8,1.3,2.7c4,8.8,8.1,17.6,12.1,26.4C328.8,335.4,329.5,336.4,331.6,335.2z"/>
		<path class="st0" d="M279.3,239.3c-1.5,0.3-2.8,0.5-4.4,0.8c-2.2-13-4.4-25.8-6.6-39c2.6-0.4,4.8-0.8,7.1-1.2
			c1.1-0.2,1.6,0.5,2.1,1.3c2,3.2,4.1,6.4,6.1,9.6c4.1,6.4,8.2,12.8,12.3,19.2c0.5,0.8,1.1,1.5,2,2.1c-0.1-5.9-1.5-11.6-2.4-17.4
			c-0.9-5.7-1.9-11.4-3-17.4c1.5-0.3,2.8-0.5,4.4-0.7c2.2,13,4.4,25.8,6.6,38.9c-2.5,0.4-4.7,0.7-7,1.1c-1.1,0.2-1.6-0.5-2.1-1.3
			c-1.8-2.8-3.6-5.5-5.4-8.3c-4.4-6.8-8.8-13.6-13.2-20.4c-0.5-0.8-1.1-1.5-2-2.1C275.3,216.2,277.4,227.6,279.3,239.3z"/>
		<path class="st0" d="M406.7,280.8c2.1,3.5,2.4,6.7,1.2,10.3c-2.5,7.8-4.6,15.7-6.8,23.6c-0.2,0.9-0.4,1.7-0.8,3
			c3.2-0.1,5.9-1.6,8.6-2.4c2.9-0.8,5.7-1.8,8.8-2.8c0.6,1.9,1.2,3.5,1.9,5.6c-8.2,2.7-16.2,5.3-24.4,8c-1.5-2.9-2.6-5.6-1.5-9.1
			c2.6-8.4,4.8-16.9,7.2-25.4c0.2-0.7,0.3-1.5,0.6-2.8c-6,1.5-11.5,3.8-17.4,5.4c-0.6-1.8-1.3-3.5-2-5.5
			C390.5,286.1,398.6,283.4,406.7,280.8z"/>
		<path class="st0" d="M320.3,232.4c-3.2-12.8-6.3-25.5-9.5-38.2c0.8-0.3,1.3-0.6,1.9-0.7c4.1-1,8.2-2,12.3-2.8
			c7.1-1.5,12.3,0.7,15.5,7.2c3.2,6.5,5,13.5,4,20.9c-0.7,5.2-3.8,8.6-8.7,10C330.8,230,325.7,231.1,320.3,232.4z M323.8,227.4
			c3.1-0.7,5.9-1.4,8.7-2.1c4.9-1.2,7.3-3.9,7.5-8.8c0.3-6.1-1.1-11.9-4.1-17.3c-2.3-4.3-5.5-5.6-10.3-4.6c-2.4,0.5-4.9,1.1-7.3,1.7
			c-0.6,0.2-1.2,0.5-2,0.8C318.8,207.2,321.3,217.2,323.8,227.4z"/>
		<path class="st0" d="M459.8,183.2c-2.9,0.1-5.3-1-7.3-2.9c-6.5-6.3-10.5-14-11.8-23c-0.5-3.7,1-6.9,3.8-9.3
			c3.2-2.8,7-4.7,11.2-5.4c2.7-0.5,5.2,0.1,7.4,1.6c1.4,0.9,2.8,2,3.9,3.3c4.8,5.5,8.1,11.8,9.8,19c1.1,4.9-0.4,8.9-4.4,11.9
			C468.6,181.1,464.6,183.1,459.8,183.2z M472.3,169.2c0-0.1,0-0.5-0.1-0.9c-1.7-7.6-5-14.3-10.8-19.7c-2.3-2.1-5.1-2.2-7.9-1.3
			c-1.3,0.4-2.6,1-3.8,1.8c-4.1,2.5-5.4,5.5-4.2,10.2c1.2,5.1,3.7,9.7,6.7,14c1,1.5,2.3,2.8,3.6,4c1.8,1.6,4.1,2.1,6.4,1.6
			c2.8-0.6,5.3-1.9,7.4-3.8C471.4,173.5,472.4,171.8,472.3,169.2z"/>
		<path class="st0" d="M219.1,345.9c0,1.9,0,3.5,0,5.5c-1.6,0.2-3.4,0.7-5.1,0.7c-3.5,0-7,0.1-10.4-0.3c-4.6-0.6-7.7-3.4-8.8-7.9
			c-2-8.1-2-16.3,0.4-24.3c1.3-4.4,4.3-6.8,8.8-7.5c4.4-0.7,10.6-0.1,15.8,1.6c0,1.6,0,3.3,0,5.2c-2.8-0.3-5.3-0.5-7.9-0.8
			c-0.3,0-0.6-0.1-0.9-0.1c-6.6-0.7-9.3,1.4-10.2,8c-0.6,4.4-0.7,8.8-0.1,13.2c0.7,5,2.8,7.1,7.9,7.3c1.7,0.1,3.4,0.1,5.1,0
			C215.3,346.3,217,346.1,219.1,345.9z"/>
		<path class="st0" d="M366.6,179.2c7.5,11.5,14.9,22.8,22.5,34.4c-1.5,0.5-2.8,0.9-4.2,1.4c-2-3-3.9-5.8-5.9-8.8
			c-5.3,1.6-10.5,3.2-15.7,4.8c0,3.6,0,6.9,0,10.5c-1.1,0.4-2.3,0.8-3.5,1.2c-0.8-2-2.4-35-2-40.8
			C360.5,181.1,363.5,180.2,366.6,179.2z M376.7,202.6c-4.2-6.4-8.2-12.5-12.1-18.4c-2.8,0.6-2.9,0.6-2.8,2.8
			c0.2,5.7,0.5,11.4,0.7,17.1c0,0.9,0.2,1.7,0.4,2.8C367.5,205.4,371.8,204.1,376.7,202.6z"/>
		<path class="st0" d="M250.1,203c1.6,0,2.8,0,4.3,0c0.3,3,0.6,5.9,0.9,8.8c0.6,6.2,1.1,12.3,1.7,18.5c0.7,7-2.4,11.4-9.3,12.8
			c-2.7,0.5-5.6,0.7-8.3,0.5c-5.5-0.4-8.8-3.5-9.8-8.9c-0.5-2.6-0.7-5.4-0.9-8c-0.7-7-1.3-13.9-1.9-20.9c0-0.2,0.1-0.4,0.3-0.9
			c1.2-0.1,2.6-0.1,4.1-0.2c0.4,4.6,0.9,8.9,1.3,13.3c0.4,4.8,0.8,9.6,1.3,14.3c0.5,4.9,3.2,7.4,8.1,7.4c1.8,0,3.6-0.2,5.3-0.7
			c3.6-1,5.3-3.3,5.2-7c-0.1-3.8-0.5-7.6-0.9-11.4c-0.5-5.2-1-10.3-1.4-15.5C250,204.5,250.1,204,250.1,203z"/>
		<path class="st0" d="M197.2,209.4c0,5.3,0,10.1,0,15.2c5.4,0,10.6,0,16.1,0c0,1.5,0,2.6,0,4.1c-5.3,0-10.4,0-15.8,0
			c0,5.5,0,10.6,0,16c-1.3,0-2.7,0-4.4,0c-0.3-12.8-0.5-25.8-0.8-39.1c8-0.3,15.7-0.1,23.7-0.2c0.1,1.4,0.2,2.5,0.3,4
			C209.8,209.4,203.6,209.4,197.2,209.4z"/>
		<path class="st0" d="M409,164.8c0.4,1.3,0.8,2.3,1.1,3.5c-2.8,0.8-5.4,1.4-7.9,2.2c-1.7,0.6-3.4,1.3-4.9,2.2
			c-2.4,1.4-3.6,3.7-3.4,6.6c0.1,0.9,0.1,1.8,0.3,2.7c1.3,5.5,3.2,10.7,6.1,15.6c3,4.9,6.1,6,11.4,4.1c3.3-1.2,6.4-2.8,9.8-4.4
			c0.4,0.9,1,1.9,1.6,3.2c-5.1,3.2-10.1,6.2-16.3,6.4c-2.9,0.1-5.4-0.8-7.3-2.9c-1.5-1.6-2.9-3.3-4-5.2c-2.7-4.7-4.6-9.8-5.9-15
			c-0.1-0.5-0.2-1-0.3-1.5c-1-7.6,1.2-11.5,8.2-14.4c1.9-0.8,4-1.4,6-1.9C405.3,165.4,406.9,165.2,409,164.8z"/>
		<path class="st0" d="M440.3,193.5c-1.6,0.7-2.7,1.2-4.2,1.8c-5.5-12.1-10.9-24-16.4-36.1c1.4-0.6,2.6-1.2,4.1-1.8
			C429.4,169.5,434.8,181.4,440.3,193.5z"/>
		<path class="st0" d="M291.3,293.6c1,1.9,1.9,3.5,2.9,5.5c-4.4,2.3-8.8,4.3-13.4,6.5c-0.8-1.4-1.5-2.8-2.4-4.4
			C282.7,298.6,286.9,296.1,291.3,293.6z"/>
		<path class="st0" d="M441.7,143.8c-1-0.8-1.7-1.3-2.8-2.1c2.8-3.6,5.4-7,8.3-10.7c1.1,0.9,2,1.7,3.2,2.7
			C447.6,137.1,444.7,140.4,441.7,143.8z"/>
	</g>
</g>
</svg>
